{
DisplayStrings = (
"`"
);
date = "2013-12-02 21:40:35 +0000";
designer = "Shinji Pons";
designerURL = www.shinjipons.com;
familyName = "Modulo 06";
fontMaster = (
{
alignmentZones = (
"{128, 129}",
"{128, 129}",
"{128, 129}",
"{0, -2}",
"{0, -2}"
);
ascender = 128;
capHeight = 128;
customParameters = (
{
name = familyName;
value = "Modulo 06";
}
);
descender = 0;
guideLines = (
{
position = "{-18, 61}";
},
{
angle = 90;
position = "{75, 135}";
},
{
angle = 90;
position = "{69, 135}";
},
{
position = "{-18, 67}";
},
{
angle = 90;
position = "{14, 143}";
},
{
angle = 90;
position = "{130, 136}";
},
{
position = "{-19, 122}";
},
{
position = "{-20, 6}";
},
{
angle = 90;
position = "{136, -22}";
},
{
angle = 90;
position = "{8, -30}";
}
);
horizontalStems = (
6
);
id = "940E2F63-624A-4C3D-A909-721782B4CF41";
userData = {
GSOffsetHorizontal = "-1";
GSOffsetMakeStroke = 1;
GSOffsetPosition = 0;
GSOffsetProportional = 1;
GSOffsetVertical = 10;
};
verticalStems = (
6
);
weightValue = 6;
widthValue = 128;
xHeight = 128;
}
);
glyphs = (
{
glyphname = A;
lastChange = "2013-12-03 13:21:01 +0000";
layers = (
{
guideLines = (
{
position = "{-11, 64}";
showMeasurement = 1;
},
{
angle = 90;
position = "{50, -8}";
showMeasurement = 1;
}
);
layerId = "940E2F63-624A-4C3D-A909-721782B4CF41";
name = Regular;
paths = (
{
closed = 1;
nodes = (
"10 126 LINE",
"134 126 LINE",
"134 2 LINE",
"10 2 LINE",
"10 65 LINE",
"73 65 LINE",
"73 63 LINE",
"12 63 LINE",
"12 4 LINE",
"132 4 LINE",
"132 124 LINE",
"10 124 LINE"
);
},
{
closed = 1;
nodes = (
"130 122 LINE",
"130 6 LINE",
"14 6 LINE",
"14 61 LINE",
"75 61 LINE",
"75 67 LINE",
"8 67 LINE",
"8 0 LINE",
"136 0 LINE",
"136 128 LINE",
"8 128 LINE",
"8 122 LINE"
);
}
);
width = 144;
}
);
unicode = 0041;
},
{
glyphname = B;
lastChange = "2013-12-03 13:21:05 +0000";
layers = (
{
layerId = "940E2F63-624A-4C3D-A909-721782B4CF41";
name = Regular;
paths = (
{
closed = 1;
nodes = (
"134 2 LINE",
"71 2 LINE",
"71 4 LINE",
"132 4 LINE",
"132 63 LINE",
"71 63 LINE",
"71 65 LINE",
"132 65 LINE",
"132 124 LINE",
"12 124 LINE",
"12 2 LINE",
"10 2 LINE",
"10 126 LINE",
"134 126 LINE"
);
},
{
closed = 1;
nodes = (
"8 128 LINE",
"8 0 LINE",
"14 0 LINE",
"14 122 LINE",
"130 122 LINE",
"130 67 LINE",
"69 67 LINE",
"69 61 LINE",
"130 61 LINE",
"130 6 LINE",
"69 6 LINE",
"69 0 LINE",
"136 0 LINE",
"136 128 LINE"
);
}
);
width = 144;
}
);
unicode = 0042;
},
{
glyphname = C;
lastChange = "2013-12-03 13:21:07 +0000";
layers = (
{
layerId = "940E2F63-624A-4C3D-A909-721782B4CF41";
name = Regular;
paths = (
{
closed = 1;
nodes = (
"10 2 LINE",
"10 126 LINE",
"134 126 LINE",
"134 124 LINE",
"12 124 LINE",
"12 4 LINE",
"134 4 LINE",
"134 2 LINE"
);
},
{
closed = 1;
nodes = (
"136 6 LINE",
"14 6 LINE",
"14 122 LINE",
"136 122 LINE",
"136 128 LINE",
"8 128 LINE",
"8 0 LINE",
"136 0 LINE"
);
}
);
width = 144;
}
);
unicode = 0043;
},
{
glyphname = D;
lastChange = "2013-12-03 13:21:09 +0000";
layers = (
{
layerId = "940E2F63-624A-4C3D-A909-721782B4CF41";
name = Regular;
paths = (
{
closed = 1;
nodes = (
"10 2 LINE",
"10 65 LINE",
"12 65 LINE",
"12 4 LINE",
"132 4 LINE",
"132 124 LINE",
"10 124 LINE",
"10 126 LINE",
"134 126 LINE",
"134 2 LINE"
);
},
{
closed = 1;
nodes = (
"136 128 LINE",
"8 128 LINE",
"8 122 LINE",
"130 122 LINE",
"130 6 LINE",
"14 6 LINE",
"14 67 LINE",
"8 67 LINE",
"8 0 LINE",
"136 0 LINE"
);
}
);
width = 144;
}
);
unicode = 0044;
},
{
glyphname = E;
lastChange = "2013-12-03 13:21:11 +0000";
layers = (
{
layerId = "940E2F63-624A-4C3D-A909-721782B4CF41";
name = Regular;
paths = (
{
closed = 1;
nodes = (
"12 4 LINE",
"134 4 LINE",
"134 2 LINE",
"10 2 LINE",
"10 126 LINE",
"12 126 LINE",
"12 65 LINE",
"132 65 LINE",
"132 124 LINE",
"71 124 LINE",
"71 126 LINE",
"134 126 LINE",
"134 63 LINE",
"12 63 LINE"
);
},
{
closed = 1;
nodes = (
"136 61 LINE",
"136 128 LINE",
"69 128 LINE",
"69 122 LINE",
"130 122 LINE",
"130 67 LINE",
"14 67 LINE",
"14 128 LINE",
"8 128 LINE",
"8 0 LINE",
"136 0 LINE",
"136 6 LINE",
"14 6 LINE",
"14 61 LINE"
);
}
);
width = 144;
}
);
unicode = 0045;
},
{
glyphname = F;
lastChange = "2013-12-03 13:21:12 +0000";
layers = (
{
layerId = "940E2F63-624A-4C3D-A909-721782B4CF41";
name = Regular;
paths = (
{
closed = 1;
nodes = (
"10 126 LINE",
"134 126 LINE",
"134 124 LINE",
"12 124 LINE",
"12 65 LINE",
"134 65 LINE",
"134 63 LINE",
"12 63 LINE",
"12 2 LINE",
"10 2 LINE"
);
},
{
closed = 1;
nodes = (
"14 0 LINE",
"14 61 LINE",
"136 61 LINE",
"136 67 LINE",
"14 67 LINE",
"14 122 LINE",
"136 122 LINE",
"136 128 LINE",
"8 128 LINE",
"8 0 LINE"
);
}
);
width = 144;
}
);
unicode = 0046;
},
{
glyphname = H;
lastChange = "2013-12-03 13:21:15 +0000";
layers = (
{
layerId = "940E2F63-624A-4C3D-A909-721782B4CF41";
name = Regular;
paths = (
{
closed = 1;
nodes = (
"134 2 LINE",
"132 2 LINE",
"132 63 LINE",
"12 63 LINE",
"12 2 LINE",
"10 2 LINE",
"10 126 LINE",
"12 126 LINE",
"12 65 LINE",
"132 65 LINE",
"132 126 LINE",
"134 126 LINE"
);
},
{
closed = 1;
nodes = (
"130 128 LINE",
"130 67 LINE",
"14 67 LINE",
"14 128 LINE",
"8 128 LINE",
"8 0 LINE",
"14 0 LINE",
"14 61 LINE",
"130 61 LINE",
"130 0 LINE",
"136 0 LINE",
"136 128 LINE"
);
}
);
width = 144;
}
);
unicode = 0048;
},
{
glyphname = J;
lastChange = "2013-12-03 13:21:19 +0000";
layers = (
{
layerId = "940E2F63-624A-4C3D-A909-721782B4CF41";
name = Regular;
paths = (
{
closed = 1;
nodes = (
"134 2 LINE",
"10 2 LINE",
"10 4 LINE",
"132 4 LINE",
"132 124 LINE",
"71 124 LINE",
"71 126 LINE",
"134 126 LINE"
);
},
{
closed = 1;
nodes = (
"69 128 LINE",
"69 122 LINE",
"130 122 LINE",
"130 6 LINE",
"8 6 LINE",
"8 0 LINE",
"136 0 LINE",
"136 128 LINE"
);
}
);
width = 144;
}
);
unicode = 004A;
},
{
glyphname = K;
lastChange = "2013-12-03 13:21:20 +0000";
layers = (
{
layerId = "940E2F63-624A-4C3D-A909-721782B4CF41";
name = Regular;
paths = (
{
closed = 1;
nodes = (
"73 65 LINE",
"134 65 LINE",
"134 2 LINE",
"132 2 LINE",
"132 63 LINE",
"12 63 LINE",
"12 2 LINE",
"10 2 LINE",
"10 126 LINE",
"12 126 LINE",
"12 65 LINE",
"71 65 LINE",
"71 126 LINE",
"134 126 LINE",
"134 124 LINE",
"73 124 LINE"
);
},
{
closed = 1;
nodes = (
"136 122 LINE",
"136 128 LINE",
"69 128 LINE",
"69 67 LINE",
"14 67 LINE",
"14 128 LINE",
"8 128 LINE",
"8 0 LINE",
"14 0 LINE",
"14 61 LINE",
"130 61 LINE",
"130 0 LINE",
"136 0 LINE",
"136 67 LINE",
"75 67 LINE",
"75 122 LINE"
);
}
);
width = 144;
}
);
unicode = 004B;
},
{
glyphname = L;
lastChange = "2013-12-03 13:21:21 +0000";
layers = (
{
layerId = "940E2F63-624A-4C3D-A909-721782B4CF41";
name = Regular;
paths = (
{
closed = 1;
nodes = (
"10 126 LINE",
"12 126 LINE",
"12 4 LINE",
"134 4 LINE",
"134 2 LINE",
"10 2 LINE"
);
},
{
closed = 1;
nodes = (
"136 0 LINE",
"136 6 LINE",
"14 6 LINE",
"14 128 LINE",
"8 128 LINE",
"8 0 LINE"
);
}
);
width = 144;
}
);
unicode = 004C;
},
{
glyphname = M;
lastChange = "2013-12-03 13:21:22 +0000";
layers = (
{
layerId = "940E2F63-624A-4C3D-A909-721782B4CF41";
name = Regular;
paths = (
{
closed = 1;
nodes = (
"134 2 LINE",
"132 2 LINE",
"132 124 LINE",
"73 124 LINE",
"73 2 LINE",
"71 2 LINE",
"71 124 LINE",
"12 124 LINE",
"12 2 LINE",
"10 2 LINE",
"10 126 LINE",
"134 126 LINE"
);
},
{
closed = 1;
nodes = (
"8 128 LINE",
"8 0 LINE",
"14 0 LINE",
"14 122 LINE",
"69 122 LINE",
"69 0 LINE",
"75 0 LINE",
"75 122 LINE",
"130 122 LINE",
"130 0 LINE",
"136 0 LINE",
"136 128 LINE"
);
}
);
width = 144;
}
);
unicode = 004D;
},
{
glyphname = N;
lastChange = "2013-12-03 13:21:24 +0000";
layers = (
{
layerId = "940E2F63-624A-4C3D-A909-721782B4CF41";
name = Regular;
paths = (
{
closed = 1;
nodes = (
"134 2 LINE",
"71 2 LINE",
"71 124 LINE",
"12 124 LINE",
"12 2 LINE",
"10 2 LINE",
"10 126 LINE",
"73 126 LINE",
"73 4 LINE",
"132 4 LINE",
"132 126 LINE",
"134 126 LINE"
);
},
{
closed = 1;
nodes = (
"130 128 LINE",
"130 6 LINE",
"75 6 LINE",
"75 128 LINE",
"8 128 LINE",
"8 0 LINE",
"14 0 LINE",
"14 122 LINE",
"69 122 LINE",
"69 0 LINE",
"136 0 LINE",
"136 128 LINE"
);
}
);
width = 144;
}
);
unicode = 004E;
},
{
glyphname = O;
lastChange = "2013-12-03 13:21:26 +0000";
layers = (
{
layerId = "940E2F63-624A-4C3D-A909-721782B4CF41";
name = Regular;
paths = (
{
closed = 1;
nodes = (
"134 2 LINE",
"10 2 LINE",
"10 126 LINE",
"134 126 LINE"
);
},
{
closed = 1;
nodes = (
"8 128 LINE",
"8 0 LINE",
"136 0 LINE",
"136 128 LINE"
);
},
{
closed = 1;
nodes = (
"12 124 LINE",
"12 4 LINE",
"132 4 LINE",
"132 124 LINE"
);
},
{
closed = 1;
nodes = (
"130 6 LINE",
"14 6 LINE",
"14 122 LINE",
"130 122 LINE"
);
}
);
width = 144;
}
);
unicode = 004F;
},
{
glyphname = P;
lastChange = "2013-12-03 13:21:27 +0000";
layers = (
{
layerId = "940E2F63-624A-4C3D-A909-721782B4CF41";
name = Regular;
paths = (
{
closed = 1;
nodes = (
"10 2 LINE",
"10 126 LINE",
"134 126 LINE",
"134 63 LINE",
"71 63 LINE",
"71 65 LINE",
"132 65 LINE",
"132 124 LINE",
"12 124 LINE",
"12 2 LINE"
);
},
{
closed = 1;
nodes = (
"14 122 LINE",
"130 122 LINE",
"130 67 LINE",
"69 67 LINE",
"69 61 LINE",
"136 61 LINE",
"136 128 LINE",
"8 128 LINE",
"8 0 LINE",
"14 0 LINE"
);
}
);
width = 144;
}
);
unicode = 0050;
},
{
glyphname = Q;
lastChange = "2013-12-03 13:21:28 +0000";
layers = (
{
layerId = "940E2F63-624A-4C3D-A909-721782B4CF41";
name = Regular;
paths = (
{
closed = 1;
nodes = (
"134 2 LINE",
"10 2 LINE",
"10 126 LINE",
"134 126 LINE"
);
},
{
closed = 1;
nodes = (
"8 128 LINE",
"8 0 LINE",
"136 0 LINE",
"136 128 LINE"
);
},
{
closed = 1;
nodes = (
"12 124 LINE",
"12 4 LINE",
"71 4 LINE",
"71 65 LINE",
"73 65 LINE",
"73 4 LINE",
"132 4 LINE",
"132 124 LINE"
);
},
{
closed = 1;
nodes = (
"130 6 LINE",
"75 6 LINE",
"75 67 LINE",
"69 67 LINE",
"69 6 LINE",
"14 6 LINE",
"14 122 LINE",
"130 122 LINE"
);
}
);
width = 144;
}
);
unicode = 0051;
},
{
glyphname = R;
lastChange = "2013-12-03 13:21:30 +0000";
layers = (
{
layerId = "940E2F63-624A-4C3D-A909-721782B4CF41";
name = Regular;
paths = (
{
closed = 1;
nodes = (
"73 4 LINE",
"134 4 LINE",
"134 2 LINE",
"71 2 LINE",
"71 65 LINE",
"132 65 LINE",
"132 124 LINE",
"12 124 LINE",
"12 2 LINE",
"10 2 LINE",
"10 126 LINE",
"134 126 LINE",
"134 63 LINE",
"73 63 LINE"
);
},
{
closed = 1;
nodes = (
"136 61 LINE",
"136 128 LINE",
"8 128 LINE",
"8 0 LINE",
"14 0 LINE",
"14 122 LINE",
"130 122 LINE",
"130 67 LINE",
"69 67 LINE",
"69 0 LINE",
"136 0 LINE",
"136 6 LINE",
"75 6 LINE",
"75 61 LINE"
);
}
);
width = 144;
}
);
unicode = 0052;
},
{
glyphname = T;
lastChange = "2013-12-03 13:21:33 +0000";
layers = (
{
layerId = "940E2F63-624A-4C3D-A909-721782B4CF41";
name = Regular;
paths = (
{
closed = 1;
nodes = (
"134 124 LINE",
"73 124 LINE",
"73 2 LINE",
"71 2 LINE",
"71 124 LINE",
"10 124 LINE",
"10 126 LINE",
"134 126 LINE"
);
},
{
closed = 1;
nodes = (
"8 128 LINE",
"8 122 LINE",
"69 122 LINE",
"69 0 LINE",
"75 0 LINE",
"75 122 LINE",
"136 122 LINE",
"136 128 LINE"
);
}
);
width = 144;
}
);
unicode = 0054;
},
{
glyphname = V;
lastChange = "2013-12-03 13:21:36 +0000";
layers = (
{
layerId = "940E2F63-624A-4C3D-A909-721782B4CF41";
name = Regular;
paths = (
{
closed = 1;
nodes = (
"12 126 LINE",
"12 4 LINE",
"71 4 LINE",
"71 65 LINE",
"132 65 LINE",
"132 126 LINE",
"134 126 LINE",
"134 63 LINE",
"73 63 LINE",
"73 2 LINE",
"10 2 LINE",
"10 126 LINE"
);
},
{
closed = 1;
nodes = (
"8 0 LINE",
"75 0 LINE",
"75 61 LINE",
"136 61 LINE",
"136 128 LINE",
"130 128 LINE",
"130 67 LINE",
"69 67 LINE",
"69 6 LINE",
"14 6 LINE",
"14 128 LINE",
"8 128 LINE"
);
}
);
width = 144;
}
);
unicode = 0056;
},
{
glyphname = X;
lastChange = "2013-12-03 13:21:38 +0000";
layers = (
{
layerId = "940E2F63-624A-4C3D-A909-721782B4CF41";
name = Regular;
paths = (
{
closed = 1;
nodes = (
"73 4 LINE",
"132 4 LINE",
"132 65 LINE",
"134 65 LINE",
"134 2 LINE",
"10 2 LINE",
"10 4 LINE",
"71 4 LINE",
"71 124 LINE",
"12 124 LINE",
"12 63 LINE",
"10 63 LINE",
"10 126 LINE",
"134 126 LINE",
"134 124 LINE",
"73 124 LINE"
);
},
{
closed = 1;
nodes = (
"136 122 LINE",
"136 128 LINE",
"8 128 LINE",
"8 61 LINE",
"14 61 LINE",
"14 122 LINE",
"69 122 LINE",
"69 6 LINE",
"8 6 LINE",
"8 0 LINE",
"136 0 LINE",
"136 67 LINE",
"130 67 LINE",
"130 6 LINE",
"75 6 LINE",
"75 122 LINE"
);
}
);
width = 144;
}
);
unicode = 0058;
},
{
glyphname = Y;
lastChange = "2013-12-03 13:21:40 +0000";
layers = (
{
layerId = "940E2F63-624A-4C3D-A909-721782B4CF41";
name = Regular;
paths = (
{
closed = 1;
nodes = (
"134 2 LINE",
"10 2 LINE",
"10 4 LINE",
"132 4 LINE",
"132 63 LINE",
"10 63 LINE",
"10 126 LINE",
"12 126 LINE",
"12 65 LINE",
"132 65 LINE",
"132 126 LINE",
"134 126 LINE"
);
},
{
closed = 1;
nodes = (
"130 128 LINE",
"130 67 LINE",
"14 67 LINE",
"14 128 LINE",
"8 128 LINE",
"8 61 LINE",
"130 61 LINE",
"130 6 LINE",
"8 6 LINE",
"8 0 LINE",
"136 0 LINE",
"136 128 LINE"
);
}
);
width = 144;
}
);
unicode = 0059;
},
{
glyphname = zero;
lastChange = "2013-12-03 13:21:48 +0000";
layers = (
{
components = (
{
name = O;
transform = "{1, 0, 0, 1, 0, 0}";
}
);
layerId = "940E2F63-624A-4C3D-A909-721782B4CF41";
name = Regular;
paths = (
{
closed = 1;
nodes = (
"73 65 LINE",
"73 63 LINE",
"71 63 LINE",
"71 65 LINE"
);
},
{
closed = 1;
nodes = (
"69 61 LINE",
"75 61 LINE",
"75 67 LINE",
"69 67 LINE"
);
}
);
width = 144;
}
);
unicode = 0030;
},
{
glyphname = one;
lastChange = "2013-12-03 13:21:49 +0000";
layers = (
{
layerId = "940E2F63-624A-4C3D-A909-721782B4CF41";
name = Regular;
paths = (
{
closed = 1;
nodes = (
"134 2 LINE",
"10 2 LINE",
"10 4 LINE",
"71 4 LINE",
"71 124 LINE",
"10 124 LINE",
"10 126 LINE",
"73 126 LINE",
"73 4 LINE",
"134 4 LINE"
);
},
{
closed = 1;
nodes = (
"75 6 LINE",
"75 128 LINE",
"8 128 LINE",
"8 122 LINE",
"69 122 LINE",
"69 6 LINE",
"8 6 LINE",
"8 0 LINE",
"136 0 LINE",
"136 6 LINE"
);
}
);
width = 144;
}
);
unicode = 0031;
},
{
glyphname = four;
lastChange = "2013-12-03 13:21:52 +0000";
layers = (
{
layerId = "940E2F63-624A-4C3D-A909-721782B4CF41";
name = Regular;
paths = (
{
closed = 1;
nodes = (
"134 2 LINE",
"132 2 LINE",
"132 63 LINE",
"10 63 LINE",
"10 126 LINE",
"12 126 LINE",
"12 65 LINE",
"132 65 LINE",
"132 126 LINE",
"134 126 LINE"
);
},
{
closed = 1;
nodes = (
"130 128 LINE",
"130 67 LINE",
"14 67 LINE",
"14 128 LINE",
"8 128 LINE",
"8 61 LINE",
"130 61 LINE",
"130 0 LINE",
"136 0 LINE",
"136 128 LINE"
);
}
);
width = 144;
}
);
unicode = 0034;
},
{
glyphname = seven;
lastChange = "2013-12-03 13:21:55 +0000";
layers = (
{
layerId = "940E2F63-624A-4C3D-A909-721782B4CF41";
name = Regular;
paths = (
{
closed = 1;
nodes = (
"134 63 LINE",
"73 63 LINE",
"73 2 LINE",
"71 2 LINE",
"71 65 LINE",
"132 65 LINE",
"132 124 LINE",
"10 124 LINE",
"10 126 LINE",
"134 126 LINE"
);
},
{
closed = 1;
nodes = (
"8 128 LINE",
"8 122 LINE",
"130 122 LINE",
"130 67 LINE",
"69 67 LINE",
"69 0 LINE",
"75 0 LINE",
"75 61 LINE",
"136 61 LINE",
"136 128 LINE"
);
}
);
width = 144;
}
);
unicode = 0037;
},
{
glyphname = eight;
lastChange = "2013-12-03 13:21:57 +0000";
layers = (
{
layerId = "940E2F63-624A-4C3D-A909-721782B4CF41";
name = Regular;
paths = (
{
closed = 1;
nodes = (
"134 2 LINE",
"10 2 LINE",
"10 126 LINE",
"134 126 LINE"
);
},
{
closed = 1;
nodes = (
"8 128 LINE",
"8 0 LINE",
"136 0 LINE",
"136 128 LINE"
);
},
{
closed = 1;
nodes = (
"12 124 LINE",
"12 65 LINE",
"132 65 LINE",
"132 124 LINE"
);
},
{
closed = 1;
nodes = (
"130 67 LINE",
"14 67 LINE",
"14 122 LINE",
"130 122 LINE"
);
},
{
closed = 1;
nodes = (
"12 63 LINE",
"12 4 LINE",
"132 4 LINE",
"132 63 LINE"
);
},
{
closed = 1;
nodes = (
"130 6 LINE",
"14 6 LINE",
"14 61 LINE",
"130 61 LINE"
);
}
);
width = 144;
}
);
unicode = 0038;
},
{
glyphname = asterisk;
lastChange = "2013-12-03 13:22:00 +0000";
layers = (
{
components = (
{
name = plus;
transform = "{1, 0, 0, 1, 0, 0}";
}
);
layerId = "940E2F63-624A-4C3D-A909-721782B4CF41";
name = Regular;
paths = (
{
closed = 1;
nodes = (
"12 4 LINE",
"12 2 LINE",
"10 2 LINE",
"10 4 LINE"
);
},
{
closed = 1;
nodes = (
"8 0 LINE",
"14 0 LINE",
"14 6 LINE",
"8 6 LINE"
);
},
{
closed = 1;
nodes = (
"134 4 LINE",
"134 2 LINE",
"132 2 LINE",
"132 4 LINE"
);
},
{
closed = 1;
nodes = (
"130 0 LINE",
"136 0 LINE",
"136 6 LINE",
"130 6 LINE"
);
},
{
closed = 1;
nodes = (
"134 126 LINE",
"134 124 LINE",
"132 124 LINE",
"132 126 LINE"
);
},
{
closed = 1;
nodes = (
"130 122 LINE",
"136 122 LINE",
"136 128 LINE",
"130 128 LINE"
);
},
{
closed = 1;
nodes = (
"12 126 LINE",
"12 124 LINE",
"10 124 LINE",
"10 126 LINE"
);
},
{
closed = 1;
nodes = (
"8 122 LINE",
"14 122 LINE",
"14 128 LINE",
"8 128 LINE"
);
}
);
width = 144;
}
);
unicode = 002A;
},
{
glyphname = backslash;
lastChange = "2013-12-03 13:22:01 +0000";
layers = (
{
layerId = "940E2F63-624A-4C3D-A909-721782B4CF41";
name = Regular;
paths = (
{
closed = 1;
nodes = (
"12 126 LINE",
"12 2 LINE",
"10 2 LINE",
"10 126 LINE"
);
},
{
closed = 1;
nodes = (
"8 0 LINE",
"14 0 LINE",
"14 128 LINE",
"8 128 LINE"
);
},
{
closed = 1;
nodes = (
"134 126 LINE",
"134 2 LINE",
"132 2 LINE",
"132 126 LINE"
);
},
{
closed = 1;
nodes = (
"130 0 LINE",
"136 0 LINE",
"136 128 LINE",
"130 128 LINE"
);
},
{
closed = 1;
nodes = (
"73 126 LINE",
"73 2 LINE",
"71 2 LINE",
"71 126 LINE"
);
},
{
closed = 1;
nodes = (
"69 0 LINE",
"75 0 LINE",
"75 128 LINE",
"69 128 LINE"
);
}
);
width = 144;
}
);
unicode = 005C;
},
{
glyphname = bullet;
lastChange = "2013-12-03 13:22:03 +0000";
layers = (
{
layerId = "940E2F63-624A-4C3D-A909-721782B4CF41";
name = Regular;
paths = (
{
closed = 1;
nodes = (
"134 124 LINE",
"10 124 LINE",
"10 126 LINE",
"134 126 LINE"
);
},
{
closed = 1;
nodes = (
"8 128 LINE",
"8 122 LINE",
"136 122 LINE",
"136 128 LINE"
);
},
{
closed = 1;
nodes = (
"134 2 LINE",
"10 2 LINE",
"10 4 LINE",
"134 4 LINE"
);
},
{
closed = 1;
nodes = (
"8 6 LINE",
"8 0 LINE",
"136 0 LINE",
"136 6 LINE"
);
},
{
closed = 1;
nodes = (
"134 63 LINE",
"10 63 LINE",
"10 65 LINE",
"134 65 LINE"
);
},
{
closed = 1;
nodes = (
"8 67 LINE",
"8 61 LINE",
"136 61 LINE",
"136 67 LINE"
);
}
);
width = 144;
}
);
unicode = 2022;
},
{
glyphname = comma;
lastChange = "2013-12-03 13:22:12 +0000";
layers = (
{
layerId = "940E2F63-624A-4C3D-A909-721782B4CF41";
name = Regular;
paths = (
{
closed = 1;
nodes = (
"134 126 LINE",
"134 2 LINE",
"10 2 LINE",
"10 126 LINE"
);
},
{
closed = 1;
nodes = (
"8 0 LINE",
"136 0 LINE",
"136 128 LINE",
"8 128 LINE"
);
}
);
width = 144;
}
);
unicode = 002C;
},
{
glyphname = ellipsis;
lastChange = "2013-12-03 13:22:17 +0000";
layers = (
{
layerId = "940E2F63-624A-4C3D-A909-721782B4CF41";
name = Regular;
paths = (
{
closed = 1;
nodes = (
"134 124 LINE",
"10 124 LINE",
"10 126 LINE",
"134 126 LINE"
);
},
{
closed = 1;
nodes = (
"8 128 LINE",
"8 122 LINE",
"136 122 LINE",
"136 128 LINE"
);
},
{
closed = 1;
nodes = (
"134 63 LINE",
"10 63 LINE",
"10 65 LINE",
"134 65 LINE"
);
},
{
closed = 1;
nodes = (
"8 67 LINE",
"8 61 LINE",
"136 61 LINE",
"136 67 LINE"
);
},
{
closed = 1;
nodes = (
"12 4 LINE",
"12 2 LINE",
"10 2 LINE",
"10 4 LINE"
);
},
{
closed = 1;
nodes = (
"8 0 LINE",
"14 0 LINE",
"14 6 LINE",
"8 6 LINE"
);
},
{
closed = 1;
nodes = (
"134 4 LINE",
"134 2 LINE",
"132 2 LINE",
"132 4 LINE"
);
},
{
closed = 1;
nodes = (
"130 0 LINE",
"136 0 LINE",
"136 6 LINE",
"130 6 LINE"
);
},
{
closed = 1;
nodes = (
"73 4 LINE",
"73 2 LINE",
"71 2 LINE",
"71 4 LINE"
);
},
{
closed = 1;
nodes = (
"69 0 LINE",
"75 0 LINE",
"75 6 LINE",
"69 6 LINE"
);
}
);
width = 144;
}
);
unicode = 2026;
},
{
glyphname = exclam;
lastChange = "2013-12-03 13:22:18 +0000";
layers = (
{
layerId = "940E2F63-624A-4C3D-A909-721782B4CF41";
name = Regular;
paths = (
{
closed = 1;
nodes = (
"12 4 LINE",
"12 2 LINE",
"10 2 LINE",
"10 4 LINE"
);
},
{
closed = 1;
nodes = (
"8 0 LINE",
"14 0 LINE",
"14 6 LINE",
"8 6 LINE"
);
},
{
closed = 1;
nodes = (
"134 4 LINE",
"134 2 LINE",
"132 2 LINE",
"132 4 LINE"
);
},
{
closed = 1;
nodes = (
"130 0 LINE",
"136 0 LINE",
"136 6 LINE",
"130 6 LINE"
);
},
{
closed = 1;
nodes = (
"73 4 LINE",
"73 2 LINE",
"71 2 LINE",
"71 4 LINE"
);
},
{
closed = 1;
nodes = (
"69 0 LINE",
"75 0 LINE",
"75 6 LINE",
"69 6 LINE"
);
},
{
closed = 1;
nodes = (
"12 126 LINE",
"12 63 LINE",
"10 63 LINE",
"10 126 LINE"
);
},
{
closed = 1;
nodes = (
"8 61 LINE",
"14 61 LINE",
"14 128 LINE",
"8 128 LINE"
);
},
{
closed = 1;
nodes = (
"134 126 LINE",
"134 63 LINE",
"132 63 LINE",
"132 126 LINE"
);
},
{
closed = 1;
nodes = (
"130 61 LINE",
"136 61 LINE",
"136 128 LINE",
"130 128 LINE"
);
},
{
closed = 1;
nodes = (
"73 126 LINE",
"73 63 LINE",
"71 63 LINE",
"71 126 LINE"
);
},
{
closed = 1;
nodes = (
"69 61 LINE",
"75 61 LINE",
"75 128 LINE",
"69 128 LINE"
);
}
);
width = 144;
}
);
unicode = 0021;
},
{
color = 1;
glyphname = numbersign;
lastChange = "2013-12-03 13:22:21 +0000";
layers = (
{
layerId = "940E2F63-624A-4C3D-A909-721782B4CF41";
name = Regular;
paths = (
{
closed = 1;
nodes = (
"134 2 LINE",
"10 2 LINE",
"10 126 LINE",
"134 126 LINE"
);
},
{
closed = 1;
nodes = (
"8 128 LINE",
"8 0 LINE",
"136 0 LINE",
"136 128 LINE"
);
},
{
closed = 1;
nodes = (
"71 65 LINE",
"71 124 LINE",
"12 124 LINE",
"12 65 LINE"
);
},
{
closed = 1;
nodes = (
"14 122 LINE",
"69 122 LINE",
"69 67 LINE",
"14 67 LINE"
);
},
{
closed = 1;
nodes = (
"132 65 LINE",
"132 124 LINE",
"73 124 LINE",
"73 65 LINE"
);
},
{
closed = 1;
nodes = (
"75 122 LINE",
"130 122 LINE",
"130 67 LINE",
"75 67 LINE"
);
},
{
closed = 1;
nodes = (
"71 4 LINE",
"71 63 LINE",
"12 63 LINE",
"12 4 LINE"
);
},
{
closed = 1;
nodes = (
"14 61 LINE",
"69 61 LINE",
"69 6 LINE",
"14 6 LINE"
);
},
{
closed = 1;
nodes = (
"132 4 LINE",
"132 63 LINE",
"73 63 LINE",
"73 4 LINE"
);
},
{
closed = 1;
nodes = (
"75 61 LINE",
"130 61 LINE",
"130 6 LINE",
"75 6 LINE"
);
}
);
width = 144;
}
);
unicode = 0023;
},
{
glyphname = question;
lastChange = "2013-12-03 13:22:24 +0000";
layers = (
{
layerId = "940E2F63-624A-4C3D-A909-721782B4CF41";
name = Regular;
paths = (
{
closed = 1;
nodes = (
"134 63 LINE",
"71 63 LINE",
"71 65 LINE",
"132 65 LINE",
"132 124 LINE",
"10 124 LINE",
"10 126 LINE",
"134 126 LINE"
);
},
{
closed = 1;
nodes = (
"8 128 LINE",
"8 122 LINE",
"130 122 LINE",
"130 67 LINE",
"69 67 LINE",
"69 61 LINE",
"136 61 LINE",
"136 128 LINE"
);
},
{
closed = 1;
nodes = (
"73 4 LINE",
"73 2 LINE",
"71 2 LINE",
"71 4 LINE"
);
},
{
closed = 1;
nodes = (
"69 0 LINE",
"75 0 LINE",
"75 6 LINE",
"69 6 LINE"
);
}
);
width = 144;
}
);
unicode = 003F;
},
{
glyphname = braceleft;
lastChange = "2013-12-03 13:22:28 +0000";
layers = (
{
layerId = "940E2F63-624A-4C3D-A909-721782B4CF41";
name = Regular;
paths = (
{
closed = 1;
nodes = (
"73 4 LINE",
"134 4 LINE",
"134 2 LINE",
"71 2 LINE",
"71 63 LINE",
"10 63 LINE",
"10 65 LINE",
"71 65 LINE",
"71 126 LINE",
"134 126 LINE",
"134 124 LINE",
"73 124 LINE"
);
},
{
closed = 1;
nodes = (
"136 122 LINE",
"136 128 LINE",
"69 128 LINE",
"69 67 LINE",
"8 67 LINE",
"8 61 LINE",
"69 61 LINE",
"69 0 LINE",
"136 0 LINE",
"136 6 LINE",
"75 6 LINE",
"75 122 LINE"
);
}
);
width = 144;
}
);
unicode = 007B;
},
{
color = 0;
glyphname = dollar;
lastChange = "2013-12-03 13:31:09 +0000";
layers = (
{
layerId = "940E2F63-624A-4C3D-A909-721782B4CF41";
name = Regular;
paths = (
{
closed = 1;
nodes = (
"14 67 LINE",
"14 122 LINE",
"68.9949 122 LINE",
"69 67 LINE"
);
},
{
closed = 1;
nodes = (
"75 61 LINE",
"130 61 LINE",
"130 6 LINE",
"75 6 LINE"
);
},
{
closed = 1;
nodes = (
"71 63 LINE",
"10 63 LINE",
"10 126 LINE",
"134 126 LINE",
"134 124 LINE",
"73 124 LINE",
"73 65 LINE",
"134 65 LINE",
"134 2 LINE",
"10 2 LINE",
"10 4 LINE",
"71 4 LINE"
);
},
{
closed = 1;
nodes = (
"71 124 LINE",
"12 124 LINE",
"12 65 LINE",
"71 65 LINE"
);
},
{
closed = 1;
nodes = (
"132 4 LINE",
"132 63 LINE",
"73 63 LINE",
"73 4 LINE"
);
},
{
closed = 1;
nodes = (
"8 6 LINE",
"8 0 LINE",
"136 0 LINE",
"136 67 LINE",
"75 67 LINE",
"75 122 LINE",
"136 122 LINE",
"136 128 LINE",
"8 128 LINE",
"8 61 LINE",
"69 61 LINE",
"69 6 LINE"
);
}
);
width = 144;
}
);
unicode = 0024;
},
{
color = 0;
glyphname = euro;
lastChange = "2013-12-03 13:32:52 +0000";
layers = (
{
layerId = "940E2F63-624A-4C3D-A909-721782B4CF41";
name = Regular;
paths = (
{
closed = 1;
nodes = (
"136 61 LINE",
"136 67 LINE",
"75 67 LINE",
"75 122 LINE",
"136 122 LINE",
"136 128 LINE",
"69 128 LINE",
"69 67 LINE",
"8 67 LINE",
"8 61 LINE",
"69 61 LINE",
"69 0 LINE",
"136 0 LINE",
"136 6 LINE",
"75 6 LINE",
"75 61 LINE"
);
},
{
closed = 1;
nodes = (
"73 4 LINE",
"134 4 LINE",
"134 2 LINE",
"71 2 LINE",
"71 63 LINE",
"10 63 LINE",
"10 65 LINE",
"71 65 LINE",
"71 126 LINE",
"134 126 LINE",
"134 124 LINE",
"73 124 LINE",
"73 65 LINE",
"134 65 LINE",
"134 63 LINE",
"73 63 LINE"
);
}
);
width = 144;
}
);
unicode = 20AC;
},
{
glyphname = divide;
lastChange = "2013-12-03 13:32:59 +0000";
layers = (
{
layerId = "940E2F63-624A-4C3D-A909-721782B4CF41";
name = Regular;
paths = (
{
closed = 1;
nodes = (
"134 63 LINE",
"10 63 LINE",
"10 65 LINE",
"134 65 LINE"
);
},
{
closed = 1;
nodes = (
"8 67 LINE",
"8 61 LINE",
"136 61 LINE",
"136 67 LINE"
);
},
{
closed = 1;
nodes = (
"73 126 LINE",
"73 124 LINE",
"71 124 LINE",
"71 126 LINE"
);
},
{
closed = 1;
nodes = (
"69 122 LINE",
"75 122 LINE",
"75 128 LINE",
"69 128 LINE"
);
},
{
closed = 1;
nodes = (
"73 4 LINE",
"73 2 LINE",
"71 2 LINE",
"71 4 LINE"
);
},
{
closed = 1;
nodes = (
"69 0 LINE",
"75 0 LINE",
"75 6 LINE",
"69 6 LINE"
);
}
);
width = 144;
}
);
unicode = 00F7;
},
{
glyphname = notequal;
lastChange = "2013-12-03 13:42:00 +0000";
layers = (
{
layerId = "940E2F63-624A-4C3D-A909-721782B4CF41";
name = Regular;
paths = (
{
closed = 1;
nodes = (
"14 67 LINE",
"14 122 LINE",
"68.995 122 LINE",
"69 67 LINE"
);
},
{
closed = 1;
nodes = (
"75 61 LINE",
"130 61 LINE",
"130 6 LINE",
"75 6 LINE"
);
},
{
closed = 1;
nodes = (
"71 124 LINE",
"12 124 LINE",
"12 65 LINE",
"71 65 LINE"
);
},
{
closed = 1;
nodes = (
"132 4 LINE",
"132 63 LINE",
"73 63 LINE",
"73 4 LINE"
);
},
{
closed = 1;
nodes = (
"8 0 LINE",
"136 0 LINE",
"136 128 LINE",
"8 128 LINE"
);
},
{
closed = 1;
nodes = (
"12 4 LINE",
"71 4 LINE",
"71 63 LINE",
"12 63 LINE"
);
},
{
closed = 1;
nodes = (
"73 124 LINE",
"73 65 LINE",
"132 65 LINE",
"132 124 LINE"
);
},
{
closed = 1;
nodes = (
"130 67 LINE",
"75 67 LINE",
"75 122 LINE",
"130 122 LINE"
);
},
{
closed = 1;
nodes = (
"69 61 LINE",
"69 6 LINE",
"14 6 LINE",
"14 61 LINE"
);
},
{
closed = 1;
nodes = (
"10 126 LINE",
"134 126 LINE",
"134 2 LINE",
"10 2 LINE"
);
}
);
width = 144;
}
);
unicode = 2260;
},
{
color = 0;
glyphname = percent;
lastChange = "2013-12-03 13:33:07 +0000";
layers = (
{
layerId = "940E2F63-624A-4C3D-A909-721782B4CF41";
name = Regular;
paths = (
{
closed = 1;
nodes = (
"134 63 LINE",
"12 63 LINE",
"12 2 LINE",
"10 2 LINE",
"10 65 LINE",
"132 65 LINE",
"132 126 LINE",
"134 126 LINE"
);
},
{
closed = 1;
nodes = (
"130 128 LINE",
"130 67 LINE",
"8 67 LINE",
"8 0 LINE",
"14 0 LINE",
"14 61 LINE",
"136 61 LINE",
"136 128 LINE"
);
},
{
closed = 1;
nodes = (
"10 124 LINE",
"10 126 LINE",
"73 126 LINE",
"73 124 LINE"
);
},
{
closed = 1;
nodes = (
"75 128 LINE",
"8 128 LINE",
"8 122 LINE",
"75 122 LINE"
);
},
{
closed = 1;
nodes = (
"134 4 LINE",
"134 2 LINE",
"71 2 LINE",
"71 4 LINE"
);
},
{
closed = 1;
nodes = (
"69 0 LINE",
"136 0 LINE",
"136 6 LINE",
"69 6 LINE"
);
}
);
width = 144;
}
);
unicode = 0025;
},
{
glyphname = plus;
lastChange = "2013-12-03 13:33:09 +0000";
layers = (
{
layerId = "940E2F63-624A-4C3D-A909-721782B4CF41";
name = Regular;
paths = (
{
closed = 1;
nodes = (
"73 63 LINE",
"73 2 LINE",
"71 2 LINE",
"71 63 LINE",
"10 63 LINE",
"10 65 LINE",
"71 65 LINE",
"71 126 LINE",
"73 126 LINE",
"73 65 LINE",
"134 65 LINE",
"134 63 LINE"
);
},
{
closed = 1;
nodes = (
"136 67 LINE",
"75 67 LINE",
"75 128 LINE",
"69 128 LINE",
"69 67 LINE",
"8 67 LINE",
"8 61 LINE",
"69 61 LINE",
"69 0 LINE",
"75 0 LINE",
"75 61 LINE",
"136 61 LINE"
);
}
);
width = 144;
}
);
unicode = 002B;
},
{
glyphname = ampersand;
lastChange = "2013-12-03 13:33:13 +0000";
layers = (
{
layerId = "940E2F63-624A-4C3D-A909-721782B4CF41";
name = Regular;
paths = (
{
closed = 1;
nodes = (
"134 63 LINE",
"12 63 LINE",
"12 4 LINE",
"134 4 LINE",
"134 2 LINE",
"10 2 LINE",
"10 65 LINE",
"71 65 LINE",
"71 126 LINE",
"134 126 LINE"
);
},
{
closed = 1;
nodes = (
"69 128 LINE",
"69 67 LINE",
"8 67 LINE",
"8 0 LINE",
"136 0 LINE",
"136 6 LINE",
"14 6 LINE",
"14 61 LINE",
"136 61 LINE",
"136 128 LINE"
);
},
{
closed = 1;
nodes = (
"73 124 LINE",
"73 65 LINE",
"132 65 LINE",
"132 124 LINE"
);
},
{
closed = 1;
nodes = (
"130 67 LINE",
"75 67 LINE",
"75 122 LINE",
"130 122 LINE"
);
}
);
width = 144;
}
);
unicode = 0026;
},
{
glyphname = degree;
lastChange = "2013-12-03 13:33:15 +0000";
layers = (
{
layerId = "940E2F63-624A-4C3D-A909-721782B4CF41";
name = Regular;
paths = (
{
closed = 1;
nodes = (
"10 63 LINE",
"10 126 LINE",
"73 126 LINE",
"73 63 LINE"
);
},
{
closed = 1;
nodes = (
"75 128 LINE",
"8 128 LINE",
"8 61 LINE",
"75 61 LINE"
);
},
{
closed = 1;
nodes = (
"12 65 LINE",
"71 65 LINE",
"71 124 LINE",
"12 124 LINE"
);
},
{
closed = 1;
nodes = (
"69 122 LINE",
"69 67 LINE",
"14 67 LINE",
"14 122 LINE"
);
},
{
closed = 1;
nodes = (
"134 65 LINE",
"134 2 LINE",
"71 2 LINE",
"71 4 LINE",
"132 4 LINE",
"132 65 LINE"
);
},
{
closed = 1;
nodes = (
"130 6 LINE",
"69 6 LINE",
"69 0 LINE",
"136 0 LINE",
"136 67 LINE",
"130 67 LINE"
);
}
);
width = 144;
}
);
unicode = 00B0;
},
